PathFileType	4	(X/Y/Z)	3_2_79_p0_0-915_filt_butterworth.trc
DataRate	CameraRate	NumFrames	NumMarkers	Units	OrigDataRate	OrigDataStartFrame	OrigNumFrames
56.0	56.0	4	27	m	56.0	0	915
Frame#	Time	RHip			RKnee			RAnkle			RBigToe			RSmallToe			RHeel			LHip			LKnee			LAnkle			LBigToe			LSmallToe			LHeel			Neck			Head			Nose			RShoulder			RElbow			RWrist			RThumb			RIndex			RPinky			LShoulder			LElbow			LWrist			LThumb			LIndex			LPinky			
		X1	Y1	Z1	X2	Y2	Z2	X3	Y3	Z3	X4	Y4	Z4	X5	Y5	Z5	X6	Y6	Z6	X7	Y7	Z7	X8	Y8	Z8	X9	Y9	Z9	X10	Y10	Z10	X11	Y11	Z11	X12	Y12	Z12	X13	Y13	Z13	X14	Y14	Z14	X15	Y15	Z15	X16	Y16	Z16	X17	Y17	Z17	X18	Y18	Z18	X19	Y19	Z19	X20	Y20	Z20	X21	Y21	Z21	X22	Y22	Z22	X23	Y23	Z23	X24	Y24	Z24	X25	Y25	Z25	X26	Y26	Z26	X27	Y27	Z27	
0	0.0	0.2110464356114521	0.9770556369326768	0.4026361401890277	0.20598476873734423	0.50106469920966	0.4161858293514702	0.14594778913241435	0.06982537993676945	0.48130287330344224	0.17362441380281096	0.09503369501819331	0.26909651471671275	0.2123768222830226	0.0751399075239002	0.31929308767253817	0.13349914956642844	0.016209798199129315	0.5178986866789002	-0.013728850279075699	0.9746901429060881	0.37457557211738096	-0.022554207627173545	0.5181583115592561	0.3851993546513053	-0.022820838862955637	0.09667945044581308	0.42338894119908804	0.019866183456390196	0.09837689127223115	0.25015167496928736	-0.041074425828149526	0.10537274750462833	0.27075378316015164	-0.021983415939991723	0.03163279049486654	0.5029277871592095	0.11282245524541308	1.5099757235485203	0.38454559696807966	0.14007088405919157	1.7623839660696983	0.3060597369026554	0.14257251954264313	1.6275517906187096	0.26930573974843997	0.2784785024352371	1.4427259911062476	0.4095629841950709	0.31820047618139913	1.1747240751811998	0.3715822277929079	0.2148392420589973	1.0110549097685648	0.19772100104966736	0.12321997205809873	0.905179220028532	0.2144086735232658	0.11619763586389845	0.91050319960823	0.20105397878403963	0.13801054222705386	0.9157068116167919	0.17692658330344718	-0.03524154663286755	1.4510659090552125	0.36764872811133786	-0.05202699510653598	1.1991554001368683	0.27276312261573	0.09915746490530397	1.0087228983684884	0.19582905705871306	0.17144714220388785	0.9197699526237326	0.2453176509396685	0.16231232340429275	0.9011039098699053	0.24292416167337902	0.1305497368593696	0.9099416806288555	0.18746015177598557	
1	0.0178571428571428	0.21136996846897824	0.9770453752796965	0.40209360886188705	0.2050943767547107	0.5039787298344468	0.4112325351625617	0.14723573393358286	0.07049338163448515	0.47971916868359543	0.172564841784664	0.09953232772967974	0.26642791680954764	0.21470442529210845	0.07652309098589886	0.32043299856503166	0.1346451269512665	0.013382187324967609	0.5196968624526496	-0.01335496540598376	0.9740458097390434	0.3743028227075978	-0.023434323903644798	0.5163944065390218	0.3866738293250576	-0.020894560853270655	0.09382817575273741	0.4244614271861715	0.01741895081345385	0.10020125298098775	0.250319299836247	-0.04098803000257052	0.1058237804227056	0.27087340462165727	-0.019742564643008685	0.02792868104649036	0.5052633826941019	0.11303238625848426	1.50988502438904	0.3853986191735329	0.1400867752581993	1.7626354729455849	0.3060304428833611	0.14264792236532645	1.627534328540099	0.2690735493650669	0.2804648299754744	1.4421578839131246	0.41054178067040725	0.31524092008983123	1.173691239213596	0.3731744160476166	0.21661922820552293	1.0072014912605487	0.2045080288311244	0.11928453704520096	0.9101513570339725	0.20626081381621883	0.11544787534406123	0.9123751673378396	0.20027492480195402	0.1384306931819532	0.9140136272797152	0.17986372006135787	-0.03531569115654679	1.4470983364882946	0.36722981521628967	-0.048666342077262656	1.1953516205028727	0.2755649264009899	0.09895179400182227	1.0070655320560646	0.19590232846782762	0.1679900699595335	0.9166991501523987	0.2492914596967877	0.16457458917989354	0.8965978258538455	0.2447606701844112	0.13209778451109536	0.9109320822568379	0.18939877121783738	
2	0.0357142857142857	0.21161600001572053	0.9769354767991406	0.4017119812967302	0.20451126354134846	0.5063502961429148	0.40736905069380497	0.14832479596217812	0.07106970411584686	0.4782904899666918	0.17153337776702798	0.10367706018363028	0.2628701833194509	0.21614649601264946	0.07841206485478781	0.3195637898001706	0.13559100814880207	0.010906897285104978	0.5212055524506491	-0.012976108244636788	0.9735017534772421	0.3740592177697872	-0.023953031387615176	0.514950528957776	0.3876574808840037	-0.019223715642047688	0.09133266805405302	0.42538873331480587	0.015812353651402062	0.10302003302879058	0.24791842307886858	-0.04099423230692461	0.10641220817320225	0.27113076876064585	-0.017880041910565973	0.024322154113207126	0.5079589488026653	0.11308399896440054	1.509860255896685	0.3855593277090618	0.14009938583777953	1.7626772308550809	0.30604087227807725	0.1427002499591429	1.6275291391700761	0.2689373612051352	0.28170976671387915	1.441855490514489	0.411113894683124	0.31317437294836326	1.1726296392377662	0.3740805405872976	0.21772691731598207	1.0047491288324613	0.208764475025813	0.1180686183910428	0.9122005142780344	0.2012285042277367	0.11598693438952946	0.9120651849018013	0.1998029568409927	0.13835265492532692	0.9130862654606164	0.18229354189501723	-0.03533846961042388	1.4447584457566423	0.3669468384621538	-0.046431159501688885	1.1928443410062466	0.2772644490830385	0.09881235195447782	1.0059617459645591	0.19596651727442277	0.16739336238556016	0.9154519427950096	0.24809438065666753	0.16645042103107716	0.8947391086633736	0.24266133134023044	0.13330562677732652	0.910009049567218	0.19014434529620988	
3	0.0535714285714285	0.21179287724573848	0.9767351909924685	0.40147215091458016	0.2042057923629133	0.5082231623120423	0.40450208125764664	0.14923051322599004	0.07155209037964867	0.47701958191269045	0.17057583627195397	0.10741516573176824	0.258767754802699	0.21687265574751358	0.0806653975057173	0.31713945693428075	0.1363534614505773	0.008757567087147996	0.5224515581268562	-0.012595017598390473	0.9730459325372371	0.37384371770942615	-0.024144754312102674	0.5138023855479773	0.3881953411655798	-0.01779244903490991	0.0891708582976709	0.426180161309928	0.01489032446874281	0.10649564608334787	0.24365725867466098	-0.04107976597183446	0.10707396871919375	0.2714705007395835	-0.01636523771490919	0.020832921622675603	0.5109387158436076	0.11303324799408798	1.5098765924908228	0.3852862356782997	0.14010896488865066	1.7625866255569191	0.30607333504060175	0.1427337019235307	1.6275334315208714	0.2688795558038133	0.2823607760281286	1.4417953363462883	0.41137112151995103	0.311789191477372	1.1715752753937914	0.37445557147312486	0.21826506601292753	1.0034287955374692	0.21087175030806582	0.11878882912288682	0.9119804494826728	0.19868486256415088	0.1173614756495251	0.9101220690355063	0.19956377957837043	0.13784604842719705	0.9126649555112397	0.18423643679696022	-0.03532105886000906	1.4437369378663585	0.36678145130887596	-0.04503397376550068	1.1913802860218894	0.2780016085253455	0.09872668143337197	1.0053094537827745	0.19602154118563836	0.16873927553093698	0.9155044409033428	0.24335034195831903	0.16781125081385048	0.8947942455115044	0.23794996463495716	0.13420617128764253	0.90764524061709	0.19010498159344338	
